<?xml version="1.0" encoding="UTF-8"?>
<svg version="1.1" viewBox="0 0 120 30" xmlns="http://www.w3.org/2000/svg" xmlns:xlink="http://www.w3.org/1999/xlink">
<title>Formula 1 logo</title>
<defs>
<path id="a" d="m101.09 30h0.625v-2.8931h0.010625l1.0394 2.8931h0.54062l1.0394-2.8931h0.010625v2.8931h0.625v-3.7488h-0.91375l-1.0081 2.935h-0.010625l-1.0338-2.935h-0.92438v3.7488zm-3.4594-3.1819h1.1862v3.1819h0.65625v-3.1819h1.1919v-0.56688h-3.0344v0.56688zm-7.6275 3.1819 30-30h-18.056l-29.999 30h18.056zm-4.3012-16.935h-36.317c-11.068 0-13.005 0.58688-17.746 5.3275-4.4338 4.4338-11.636 11.608-11.636 11.608h15.732l3.7531-3.7531c2.4675-2.4675 3.74-2.7231 8.9212-2.7231h26.834l10.458-10.459zm-54.547 3.1881c-3.2744 3.0894-10.399 10.01-14.239 13.747h-16.913s13.552-13.513 21.085-20.928c7.7606-7.3875 11.629-9.0725 25.864-9.0725h51.816l-11.219 11.219h-39.544c-10.002 0-12.249 0.69312-16.849 5.0344z"/>
</defs>
<g fill="none" fill-rule="evenodd">
<mask fill="white">
<use xlink:href="#a"/>
</mask>
<use fill="#FFFFFF" xlink:href="#a"/>
</g>
</svg>
